<mxfile host="app.diagrams.net" modified="2020-12-03T07:20:12.689Z" agent="5.0 (Windows NT 10.0; Win64; x64) AppleWebKit/537.36 (KHTML, like Gecko) Chrome/87.0.4280.66 Safari/537.36" etag="5XP0uRkrGhCMf0O9PW91" version="13.10.6" type="github">
  <diagram id="wkKprQKMh2lIjEy9JK0p" name="Page-1">
    <mxGraphModel dx="1806" dy="1683" grid="1" gridSize="10" guides="1" tooltips="1" connect="1" arrows="1" fold="1" page="1" pageScale="1" pageWidth="827" pageHeight="1169" math="0" shadow="0">
      <root>
        <mxCell id="0" />
        <mxCell id="1" parent="0" />
        <mxCell id="Ek42vuAhrk8Ln4kb89eq-2" style="edgeStyle=orthogonalEdgeStyle;rounded=0;orthogonalLoop=1;jettySize=auto;html=1;" parent="1" source="dFKXp6tCZQXhxMECFwLC-1" target="Ek42vuAhrk8Ln4kb89eq-1" edge="1">
          <mxGeometry relative="1" as="geometry" />
        </mxCell>
        <mxCell id="dFKXp6tCZQXhxMECFwLC-1" value="CameraPi&lt;br&gt;Start" style="ellipse;whiteSpace=wrap;html=1;aspect=fixed;" parent="1" vertex="1">
          <mxGeometry x="100" y="-450" width="100" height="100" as="geometry" />
        </mxCell>
        <mxCell id="dFKXp6tCZQXhxMECFwLC-48" style="edgeStyle=orthogonalEdgeStyle;rounded=0;orthogonalLoop=1;jettySize=auto;html=1;" parent="1" source="dFKXp6tCZQXhxMECFwLC-3" target="dFKXp6tCZQXhxMECFwLC-88" edge="1">
          <mxGeometry relative="1" as="geometry">
            <mxPoint x="150" y="470" as="targetPoint" />
          </mxGeometry>
        </mxCell>
        <mxCell id="dFKXp6tCZQXhxMECFwLC-72" style="edgeStyle=orthogonalEdgeStyle;rounded=0;orthogonalLoop=1;jettySize=auto;html=1;entryX=0;entryY=0.5;entryDx=0;entryDy=0;" parent="1" source="dFKXp6tCZQXhxMECFwLC-3" target="dFKXp6tCZQXhxMECFwLC-88" edge="1">
          <mxGeometry relative="1" as="geometry">
            <mxPoint x="-155" y="480" as="targetPoint" />
            <Array as="points">
              <mxPoint x="-10" y="190" />
              <mxPoint x="-10" y="425" />
            </Array>
          </mxGeometry>
        </mxCell>
        <mxCell id="dFKXp6tCZQXhxMECFwLC-3" value="&lt;span style=&quot;color: rgb(0 , 0 , 0) ; font-family: &amp;#34;helvetica&amp;#34; ; font-size: 12px ; font-style: normal ; font-weight: 400 ; letter-spacing: normal ; text-align: center ; text-indent: 0px ; text-transform: none ; word-spacing: 0px ; background-color: rgb(248 , 249 , 250) ; display: inline ; float: none&quot;&gt;別モジュールPiの存在確認&lt;br&gt;IP重複回避&lt;br&gt;&lt;/span&gt;" style="rhombus;whiteSpace=wrap;html=1;" parent="1" vertex="1">
          <mxGeometry x="60" y="150" width="180" height="80" as="geometry" />
        </mxCell>
        <mxCell id="dFKXp6tCZQXhxMECFwLC-5" value="true" style="text;html=1;strokeColor=none;fillColor=none;align=center;verticalAlign=middle;whiteSpace=wrap;rounded=0;" parent="1" vertex="1">
          <mxGeometry x="190" y="230" width="40" height="20" as="geometry" />
        </mxCell>
        <mxCell id="dFKXp6tCZQXhxMECFwLC-59" style="edgeStyle=orthogonalEdgeStyle;rounded=0;orthogonalLoop=1;jettySize=auto;html=1;entryX=0.5;entryY=0;entryDx=0;entryDy=0;" parent="1" target="dFKXp6tCZQXhxMECFwLC-58" edge="1">
          <mxGeometry relative="1" as="geometry">
            <mxPoint x="150" y="990" as="sourcePoint" />
          </mxGeometry>
        </mxCell>
        <mxCell id="qD_2ZNkwh3tH0Hq8MnKl-32" style="edgeStyle=orthogonalEdgeStyle;rounded=0;orthogonalLoop=1;jettySize=auto;html=1;entryX=0.5;entryY=1;entryDx=0;entryDy=0;" edge="1" parent="1" source="dFKXp6tCZQXhxMECFwLC-58" target="qD_2ZNkwh3tH0Hq8MnKl-29">
          <mxGeometry relative="1" as="geometry">
            <Array as="points">
              <mxPoint x="50" y="1120" />
            </Array>
          </mxGeometry>
        </mxCell>
        <mxCell id="dFKXp6tCZQXhxMECFwLC-58" value="&lt;span style=&quot;color: rgb(0 , 0 , 0) ; font-family: &amp;#34;helvetica&amp;#34; ; font-size: 12px ; font-style: normal ; font-weight: 400 ; letter-spacing: normal ; text-align: center ; text-indent: 0px ; text-transform: none ; word-spacing: 0px ; background-color: rgb(248 , 249 , 250) ; display: inline ; float: none&quot;&gt;サーバに処理結果を送信&lt;br&gt;&lt;/span&gt;" style="rhombus;whiteSpace=wrap;html=1;" parent="1" vertex="1">
          <mxGeometry x="60" y="1080" width="180" height="80" as="geometry" />
        </mxCell>
        <mxCell id="dFKXp6tCZQXhxMECFwLC-62" value="true" style="text;html=1;strokeColor=none;fillColor=none;align=center;verticalAlign=middle;whiteSpace=wrap;rounded=0;" parent="1" vertex="1">
          <mxGeometry x="55.5" y="1069" width="40" height="20" as="geometry" />
        </mxCell>
        <mxCell id="dFKXp6tCZQXhxMECFwLC-70" value="false" style="text;html=1;strokeColor=none;fillColor=none;align=center;verticalAlign=middle;whiteSpace=wrap;rounded=0;" parent="1" vertex="1">
          <mxGeometry x="15.5" y="160" width="40" height="20" as="geometry" />
        </mxCell>
        <mxCell id="dFKXp6tCZQXhxMECFwLC-75" style="edgeStyle=orthogonalEdgeStyle;rounded=0;orthogonalLoop=1;jettySize=auto;html=1;" parent="1" source="dFKXp6tCZQXhxMECFwLC-73" target="dFKXp6tCZQXhxMECFwLC-74" edge="1">
          <mxGeometry relative="1" as="geometry" />
        </mxCell>
        <mxCell id="dFKXp6tCZQXhxMECFwLC-73" value="PLCからステーション&lt;br&gt;情報取得" style="rounded=1;whiteSpace=wrap;html=1;" parent="1" vertex="1">
          <mxGeometry x="-197.56" y="370" width="150" height="70" as="geometry" />
        </mxCell>
        <mxCell id="dFKXp6tCZQXhxMECFwLC-171" style="edgeStyle=orthogonalEdgeStyle;rounded=0;orthogonalLoop=1;jettySize=auto;html=1;entryX=0;entryY=0.5;entryDx=0;entryDy=0;" parent="1" source="dFKXp6tCZQXhxMECFwLC-74" target="dFKXp6tCZQXhxMECFwLC-73" edge="1">
          <mxGeometry relative="1" as="geometry">
            <mxPoint x="-117.56" y="595" as="targetPoint" />
            <Array as="points">
              <mxPoint x="-230.06" y="510" />
              <mxPoint x="-230.06" y="405" />
            </Array>
          </mxGeometry>
        </mxCell>
        <mxCell id="dFKXp6tCZQXhxMECFwLC-74" value="ステーションの情報&lt;br&gt;をサーバに送信" style="rounded=1;whiteSpace=wrap;html=1;" parent="1" vertex="1">
          <mxGeometry x="-200.06" y="490" width="155" height="70" as="geometry" />
        </mxCell>
        <mxCell id="gs2BWEIWhmqGeNFwZReW-1" style="edgeStyle=orthogonalEdgeStyle;rounded=0;orthogonalLoop=1;jettySize=auto;html=1;entryX=0.5;entryY=0;entryDx=0;entryDy=0;" parent="1" source="dFKXp6tCZQXhxMECFwLC-88" target="dFKXp6tCZQXhxMECFwLC-113" edge="1">
          <mxGeometry relative="1" as="geometry" />
        </mxCell>
        <mxCell id="dFKXp6tCZQXhxMECFwLC-88" value="&lt;span style=&quot;font-family: &amp;#34;helvetica&amp;#34;&quot;&gt;コンベア静止の確認&lt;/span&gt;&lt;br style=&quot;font-family: &amp;#34;helvetica&amp;#34;&quot;&gt;&lt;span style=&quot;font-family: &amp;#34;helvetica&amp;#34;&quot;&gt;通信をPLCへ&lt;/span&gt;" style="rounded=1;whiteSpace=wrap;html=1;" parent="1" vertex="1">
          <mxGeometry x="75" y="390" width="150" height="70" as="geometry" />
        </mxCell>
        <mxCell id="ztofhrs_hkuCxPjCwXTj-53" style="edgeStyle=orthogonalEdgeStyle;rounded=0;orthogonalLoop=1;jettySize=auto;html=1;entryX=0.5;entryY=0;entryDx=0;entryDy=0;" parent="1" source="dFKXp6tCZQXhxMECFwLC-113" target="ztofhrs_hkuCxPjCwXTj-52" edge="1">
          <mxGeometry relative="1" as="geometry" />
        </mxCell>
        <mxCell id="dFKXp6tCZQXhxMECFwLC-113" value="リアルタイム撮影の&lt;br&gt;プロセスと共有している&lt;br&gt;オブジェクトを参照" style="rounded=1;whiteSpace=wrap;html=1;" parent="1" vertex="1">
          <mxGeometry x="75" y="520" width="150" height="70" as="geometry" />
        </mxCell>
        <mxCell id="dFKXp6tCZQXhxMECFwLC-122" style="edgeStyle=orthogonalEdgeStyle;rounded=0;orthogonalLoop=1;jettySize=auto;html=1;" parent="1" source="dFKXp6tCZQXhxMECFwLC-123" target="dFKXp6tCZQXhxMECFwLC-126" edge="1">
          <mxGeometry relative="1" as="geometry" />
        </mxCell>
        <mxCell id="dFKXp6tCZQXhxMECFwLC-123" value="プローブPi&lt;br&gt;Start" style="ellipse;whiteSpace=wrap;html=1;aspect=fixed;" parent="1" vertex="1">
          <mxGeometry x="879.92" y="-450" width="100" height="100" as="geometry" />
        </mxCell>
        <mxCell id="dFKXp6tCZQXhxMECFwLC-124" style="edgeStyle=orthogonalEdgeStyle;rounded=0;orthogonalLoop=1;jettySize=auto;html=1;" parent="1" source="dFKXp6tCZQXhxMECFwLC-126" target="dFKXp6tCZQXhxMECFwLC-152" edge="1">
          <mxGeometry relative="1" as="geometry">
            <mxPoint x="929.92" y="-140" as="targetPoint" />
          </mxGeometry>
        </mxCell>
        <mxCell id="dFKXp6tCZQXhxMECFwLC-125" style="edgeStyle=orthogonalEdgeStyle;rounded=0;orthogonalLoop=1;jettySize=auto;html=1;entryX=0;entryY=0.5;entryDx=0;entryDy=0;" parent="1" source="dFKXp6tCZQXhxMECFwLC-126" target="dFKXp6tCZQXhxMECFwLC-152" edge="1">
          <mxGeometry relative="1" as="geometry">
            <mxPoint x="624.92" y="-130" as="targetPoint" />
            <Array as="points">
              <mxPoint x="779.92" y="-260" />
              <mxPoint x="779.92" y="-100" />
            </Array>
          </mxGeometry>
        </mxCell>
        <mxCell id="dFKXp6tCZQXhxMECFwLC-126" value="&lt;span style=&quot;color: rgb(0 , 0 , 0) ; font-family: &amp;#34;helvetica&amp;#34; ; font-size: 12px ; font-style: normal ; font-weight: 400 ; letter-spacing: normal ; text-align: center ; text-indent: 0px ; text-transform: none ; word-spacing: 0px ; background-color: rgb(248 , 249 , 250) ; display: inline ; float: none&quot;&gt;別モジュールPiの存在確認&lt;br&gt;IP重複回避&lt;br&gt;ARP&lt;br&gt;&lt;/span&gt;" style="rhombus;whiteSpace=wrap;html=1;" parent="1" vertex="1">
          <mxGeometry x="839.92" y="-300" width="180" height="80" as="geometry" />
        </mxCell>
        <mxCell id="dFKXp6tCZQXhxMECFwLC-127" value="true" style="text;html=1;strokeColor=none;fillColor=none;align=center;verticalAlign=middle;whiteSpace=wrap;rounded=0;" parent="1" vertex="1">
          <mxGeometry x="950.92" y="-220" width="40" height="20" as="geometry" />
        </mxCell>
        <mxCell id="dFKXp6tCZQXhxMECFwLC-128" style="edgeStyle=orthogonalEdgeStyle;rounded=0;orthogonalLoop=1;jettySize=auto;html=1;exitX=0.5;exitY=1;exitDx=0;exitDy=0;" parent="1" source="dFKXp6tCZQXhxMECFwLC-152" target="dFKXp6tCZQXhxMECFwLC-130" edge="1">
          <mxGeometry relative="1" as="geometry">
            <mxPoint x="929.92" y="-60" as="sourcePoint" />
          </mxGeometry>
        </mxCell>
        <mxCell id="dFKXp6tCZQXhxMECFwLC-129" style="edgeStyle=orthogonalEdgeStyle;rounded=0;orthogonalLoop=1;jettySize=auto;html=1;" parent="1" source="dFKXp6tCZQXhxMECFwLC-130" target="dFKXp6tCZQXhxMECFwLC-154" edge="1">
          <mxGeometry relative="1" as="geometry" />
        </mxCell>
        <mxCell id="dFKXp6tCZQXhxMECFwLC-130" value="プローブで測定" style="rounded=1;whiteSpace=wrap;html=1;" parent="1" vertex="1">
          <mxGeometry x="854.92" y="-25" width="150" height="70" as="geometry" />
        </mxCell>
        <mxCell id="dFKXp6tCZQXhxMECFwLC-133" style="edgeStyle=orthogonalEdgeStyle;rounded=0;orthogonalLoop=1;jettySize=auto;html=1;entryX=0.116;entryY=0.683;entryDx=0;entryDy=0;entryPerimeter=0;" parent="1" source="dFKXp6tCZQXhxMECFwLC-134" target="dFKXp6tCZQXhxMECFwLC-126" edge="1">
          <mxGeometry relative="1" as="geometry">
            <Array as="points">
              <mxPoint x="799.92" y="360" />
              <mxPoint x="799.92" y="-245" />
            </Array>
          </mxGeometry>
        </mxCell>
        <mxCell id="dFKXp6tCZQXhxMECFwLC-134" value="&lt;span style=&quot;color: rgb(0 , 0 , 0) ; font-family: &amp;#34;helvetica&amp;#34; ; font-size: 12px ; font-style: normal ; font-weight: 400 ; letter-spacing: normal ; text-align: center ; text-indent: 0px ; text-transform: none ; word-spacing: 0px ; background-color: rgb(248 , 249 , 250) ; display: inline ; float: none&quot;&gt;サーバに処理結果を送信&lt;br&gt;&lt;/span&gt;" style="rhombus;whiteSpace=wrap;html=1;" parent="1" vertex="1">
          <mxGeometry x="839.92" y="320" width="180" height="80" as="geometry" />
        </mxCell>
        <mxCell id="dFKXp6tCZQXhxMECFwLC-135" value="true" style="text;html=1;strokeColor=none;fillColor=none;align=center;verticalAlign=middle;whiteSpace=wrap;rounded=0;" parent="1" vertex="1">
          <mxGeometry x="809.92" y="320" width="40" height="20" as="geometry" />
        </mxCell>
        <mxCell id="dFKXp6tCZQXhxMECFwLC-136" value="" style="endArrow=classic;html=1;" parent="1" edge="1">
          <mxGeometry width="50" height="50" relative="1" as="geometry">
            <mxPoint x="1019.92" y="359.99999999999955" as="sourcePoint" />
            <mxPoint x="929.92" y="269.99999999999955" as="targetPoint" />
            <Array as="points">
              <mxPoint x="1019.92" y="270" />
            </Array>
          </mxGeometry>
        </mxCell>
        <mxCell id="dFKXp6tCZQXhxMECFwLC-137" value="false" style="text;html=1;strokeColor=none;fillColor=none;align=center;verticalAlign=middle;whiteSpace=wrap;rounded=0;" parent="1" vertex="1">
          <mxGeometry x="1039.92" y="290" width="40" height="20" as="geometry" />
        </mxCell>
        <mxCell id="dFKXp6tCZQXhxMECFwLC-138" value="false" style="text;html=1;strokeColor=none;fillColor=none;align=center;verticalAlign=middle;whiteSpace=wrap;rounded=0;" parent="1" vertex="1">
          <mxGeometry x="795.42" y="-290" width="40" height="20" as="geometry" />
        </mxCell>
        <mxCell id="dFKXp6tCZQXhxMECFwLC-151" value="false" style="text;html=1;strokeColor=none;fillColor=none;align=center;verticalAlign=middle;whiteSpace=wrap;rounded=0;" parent="1" vertex="1">
          <mxGeometry x="739.92" y="380" width="40" height="20" as="geometry" />
        </mxCell>
        <mxCell id="dFKXp6tCZQXhxMECFwLC-152" value="&lt;span style=&quot;font-family: &amp;#34;helvetica&amp;#34;&quot;&gt;コンベア静止の確認&lt;/span&gt;&lt;br style=&quot;font-family: &amp;#34;helvetica&amp;#34;&quot;&gt;&lt;span style=&quot;font-family: &amp;#34;helvetica&amp;#34;&quot;&gt;通信をPLCへ&lt;/span&gt;" style="rounded=1;whiteSpace=wrap;html=1;" parent="1" vertex="1">
          <mxGeometry x="854.92" y="-135" width="150" height="70" as="geometry" />
        </mxCell>
        <mxCell id="dFKXp6tCZQXhxMECFwLC-157" style="edgeStyle=orthogonalEdgeStyle;rounded=0;orthogonalLoop=1;jettySize=auto;html=1;" parent="1" source="dFKXp6tCZQXhxMECFwLC-154" target="dFKXp6tCZQXhxMECFwLC-134" edge="1">
          <mxGeometry relative="1" as="geometry" />
        </mxCell>
        <mxCell id="dFKXp6tCZQXhxMECFwLC-154" value="測定完了をPLCに知らせる" style="rounded=1;whiteSpace=wrap;html=1;" parent="1" vertex="1">
          <mxGeometry x="854.92" y="120" width="150" height="70" as="geometry" />
        </mxCell>
        <mxCell id="dFKXp6tCZQXhxMECFwLC-180" style="edgeStyle=orthogonalEdgeStyle;rounded=0;orthogonalLoop=1;jettySize=auto;html=1;" parent="1" source="dFKXp6tCZQXhxMECFwLC-167" target="dFKXp6tCZQXhxMECFwLC-179" edge="1">
          <mxGeometry relative="1" as="geometry" />
        </mxCell>
        <mxCell id="dFKXp6tCZQXhxMECFwLC-167" value="VideoOutputPi" style="ellipse;whiteSpace=wrap;html=1;aspect=fixed;" parent="1" vertex="1">
          <mxGeometry x="280.11" y="70" width="100" height="100" as="geometry" />
        </mxCell>
        <mxCell id="dFKXp6tCZQXhxMECFwLC-182" style="edgeStyle=orthogonalEdgeStyle;rounded=0;orthogonalLoop=1;jettySize=auto;html=1;entryX=0;entryY=0.5;entryDx=0;entryDy=0;" parent="1" source="dFKXp6tCZQXhxMECFwLC-168" target="dFKXp6tCZQXhxMECFwLC-179" edge="1">
          <mxGeometry relative="1" as="geometry">
            <Array as="points">
              <mxPoint x="250.11" y="405" />
              <mxPoint x="250.11" y="270" />
            </Array>
          </mxGeometry>
        </mxCell>
        <mxCell id="dFKXp6tCZQXhxMECFwLC-168" value="カメラリアルタイム撮影" style="rounded=1;whiteSpace=wrap;html=1;" parent="1" vertex="1">
          <mxGeometry x="270.11" y="375" width="120" height="60" as="geometry" />
        </mxCell>
        <mxCell id="dFKXp6tCZQXhxMECFwLC-173" value="" style="shape=flexArrow;endArrow=classic;html=1;" parent="1" edge="1">
          <mxGeometry width="50" height="50" relative="1" as="geometry">
            <mxPoint x="150.11" y="119.5" as="sourcePoint" />
            <mxPoint x="280.11" y="120.5" as="targetPoint" />
          </mxGeometry>
        </mxCell>
        <mxCell id="dFKXp6tCZQXhxMECFwLC-174" value="プロセス分離" style="edgeLabel;html=1;align=center;verticalAlign=middle;resizable=0;points=[];" parent="dFKXp6tCZQXhxMECFwLC-173" vertex="1" connectable="0">
          <mxGeometry x="-0.0947" y="4" relative="1" as="geometry">
            <mxPoint as="offset" />
          </mxGeometry>
        </mxCell>
        <mxCell id="dFKXp6tCZQXhxMECFwLC-181" style="edgeStyle=orthogonalEdgeStyle;rounded=0;orthogonalLoop=1;jettySize=auto;html=1;entryX=0.5;entryY=0;entryDx=0;entryDy=0;" parent="1" source="dFKXp6tCZQXhxMECFwLC-179" target="dFKXp6tCZQXhxMECFwLC-168" edge="1">
          <mxGeometry relative="1" as="geometry" />
        </mxCell>
        <mxCell id="dFKXp6tCZQXhxMECFwLC-179" value="プロセス間通信待受&lt;br&gt;（非同期）" style="rounded=1;whiteSpace=wrap;html=1;" parent="1" vertex="1">
          <mxGeometry x="270.11" y="240" width="120" height="60" as="geometry" />
        </mxCell>
        <mxCell id="dFKXp6tCZQXhxMECFwLC-188" style="edgeStyle=orthogonalEdgeStyle;rounded=0;orthogonalLoop=1;jettySize=auto;html=1;entryX=0.5;entryY=0;entryDx=0;entryDy=0;" parent="1" source="dFKXp6tCZQXhxMECFwLC-186" edge="1">
          <mxGeometry relative="1" as="geometry">
            <mxPoint x="150" y="920" as="targetPoint" />
          </mxGeometry>
        </mxCell>
        <mxCell id="dFKXp6tCZQXhxMECFwLC-186" value="撮影完了をPLCに知らせる" style="rounded=1;whiteSpace=wrap;html=1;" parent="1" vertex="1">
          <mxGeometry x="75" y="795" width="150" height="70" as="geometry" />
        </mxCell>
        <mxCell id="gs2BWEIWhmqGeNFwZReW-2" value="" style="shape=flexArrow;endArrow=classic;html=1;entryX=1;entryY=0.5;entryDx=0;entryDy=0;" parent="1" target="gs2BWEIWhmqGeNFwZReW-4" edge="1">
          <mxGeometry width="50" height="50" relative="1" as="geometry">
            <mxPoint x="-10" y="270" as="sourcePoint" />
            <mxPoint x="-120" y="410" as="targetPoint" />
          </mxGeometry>
        </mxCell>
        <mxCell id="gs2BWEIWhmqGeNFwZReW-3" value="プロセス分離" style="edgeLabel;html=1;align=center;verticalAlign=middle;resizable=0;points=[];" parent="gs2BWEIWhmqGeNFwZReW-2" vertex="1" connectable="0">
          <mxGeometry x="-0.0947" y="4" relative="1" as="geometry">
            <mxPoint as="offset" />
          </mxGeometry>
        </mxCell>
        <mxCell id="gs2BWEIWhmqGeNFwZReW-5" style="edgeStyle=orthogonalEdgeStyle;rounded=0;orthogonalLoop=1;jettySize=auto;html=1;" parent="1" source="gs2BWEIWhmqGeNFwZReW-4" target="dFKXp6tCZQXhxMECFwLC-73" edge="1">
          <mxGeometry relative="1" as="geometry" />
        </mxCell>
        <mxCell id="gs2BWEIWhmqGeNFwZReW-4" value="PLC_COMMS" style="ellipse;whiteSpace=wrap;html=1;aspect=fixed;" parent="1" vertex="1">
          <mxGeometry x="-172.56" y="220" width="100" height="100" as="geometry" />
        </mxCell>
        <mxCell id="gs2BWEIWhmqGeNFwZReW-7" style="edgeStyle=orthogonalEdgeStyle;rounded=0;orthogonalLoop=1;jettySize=auto;html=1;" parent="1" source="gs2BWEIWhmqGeNFwZReW-8" target="gs2BWEIWhmqGeNFwZReW-10" edge="1">
          <mxGeometry relative="1" as="geometry" />
        </mxCell>
        <mxCell id="gs2BWEIWhmqGeNFwZReW-8" value="PLCからステーション&lt;br&gt;情報取得" style="rounded=1;whiteSpace=wrap;html=1;" parent="1" vertex="1">
          <mxGeometry x="542.42" y="-100" width="150" height="70" as="geometry" />
        </mxCell>
        <mxCell id="gs2BWEIWhmqGeNFwZReW-9" style="edgeStyle=orthogonalEdgeStyle;rounded=0;orthogonalLoop=1;jettySize=auto;html=1;entryX=0;entryY=0.5;entryDx=0;entryDy=0;" parent="1" source="gs2BWEIWhmqGeNFwZReW-10" target="gs2BWEIWhmqGeNFwZReW-8" edge="1">
          <mxGeometry relative="1" as="geometry">
            <mxPoint x="622.42" y="125" as="targetPoint" />
            <Array as="points">
              <mxPoint x="509.92" y="40" />
              <mxPoint x="509.92" y="-65" />
            </Array>
          </mxGeometry>
        </mxCell>
        <mxCell id="gs2BWEIWhmqGeNFwZReW-10" value="ステーションの情報&lt;br&gt;をサーバに送信" style="rounded=1;whiteSpace=wrap;html=1;" parent="1" vertex="1">
          <mxGeometry x="539.92" y="20" width="155" height="70" as="geometry" />
        </mxCell>
        <mxCell id="gs2BWEIWhmqGeNFwZReW-11" value="" style="shape=flexArrow;endArrow=classic;html=1;" parent="1" edge="1">
          <mxGeometry width="50" height="50" relative="1" as="geometry">
            <mxPoint x="779.92" y="-200" as="sourcePoint" />
            <mxPoint x="669.92" y="-200" as="targetPoint" />
          </mxGeometry>
        </mxCell>
        <mxCell id="gs2BWEIWhmqGeNFwZReW-12" value="プロセス分離" style="edgeLabel;html=1;align=center;verticalAlign=middle;resizable=0;points=[];" parent="gs2BWEIWhmqGeNFwZReW-11" vertex="1" connectable="0">
          <mxGeometry x="-0.0947" y="4" relative="1" as="geometry">
            <mxPoint as="offset" />
          </mxGeometry>
        </mxCell>
        <mxCell id="gs2BWEIWhmqGeNFwZReW-13" style="edgeStyle=orthogonalEdgeStyle;rounded=0;orthogonalLoop=1;jettySize=auto;html=1;" parent="1" source="gs2BWEIWhmqGeNFwZReW-14" target="gs2BWEIWhmqGeNFwZReW-8" edge="1">
          <mxGeometry relative="1" as="geometry" />
        </mxCell>
        <mxCell id="gs2BWEIWhmqGeNFwZReW-14" value="PLC_COMMS" style="ellipse;whiteSpace=wrap;html=1;aspect=fixed;" parent="1" vertex="1">
          <mxGeometry x="567.42" y="-250" width="100" height="100" as="geometry" />
        </mxCell>
        <mxCell id="LhpffrZuen5v1YRQ7B42-7" style="edgeStyle=orthogonalEdgeStyle;rounded=0;orthogonalLoop=1;jettySize=auto;html=1;exitX=0;exitY=0.5;exitDx=0;exitDy=0;" parent="1" source="Ek42vuAhrk8Ln4kb89eq-1" target="LhpffrZuen5v1YRQ7B42-6" edge="1">
          <mxGeometry relative="1" as="geometry">
            <Array as="points">
              <mxPoint x="40" y="-240" />
              <mxPoint x="40" y="-240" />
            </Array>
          </mxGeometry>
        </mxCell>
        <mxCell id="4RzyHpuHiGskv1pB8Knq-3" style="edgeStyle=orthogonalEdgeStyle;rounded=0;orthogonalLoop=1;jettySize=auto;html=1;" parent="1" source="LhpffrZuen5v1YRQ7B42-1" target="4RzyHpuHiGskv1pB8Knq-1" edge="1">
          <mxGeometry relative="1" as="geometry" />
        </mxCell>
        <mxCell id="qD_2ZNkwh3tH0Hq8MnKl-9" style="edgeStyle=orthogonalEdgeStyle;rounded=0;orthogonalLoop=1;jettySize=auto;html=1;" edge="1" parent="1" source="LhpffrZuen5v1YRQ7B42-1" target="qD_2ZNkwh3tH0Hq8MnKl-8">
          <mxGeometry relative="1" as="geometry" />
        </mxCell>
        <mxCell id="LhpffrZuen5v1YRQ7B42-1" value="&lt;span style=&quot;color: rgb(0 , 0 , 0) ; font-family: &amp;#34;helvetica&amp;#34; ; font-size: 12px ; font-style: normal ; font-weight: 400 ; letter-spacing: normal ; text-align: center ; text-indent: 0px ; text-transform: none ; word-spacing: 0px ; background-color: rgb(248 , 249 , 250) ; display: inline ; float: none&quot;&gt;PLCの存在確認&lt;br&gt;ARP&lt;br&gt;&lt;/span&gt;" style="rhombus;whiteSpace=wrap;html=1;" parent="1" vertex="1">
          <mxGeometry x="60" y="-80" width="180" height="80" as="geometry" />
        </mxCell>
        <mxCell id="LhpffrZuen5v1YRQ7B42-6" value="単独動作モード" style="rounded=1;whiteSpace=wrap;html=1;" parent="1" vertex="1">
          <mxGeometry x="-187.5" y="-190" width="120" height="60" as="geometry" />
        </mxCell>
        <mxCell id="qD_2ZNkwh3tH0Hq8MnKl-2" style="edgeStyle=orthogonalEdgeStyle;rounded=0;orthogonalLoop=1;jettySize=auto;html=1;" edge="1" parent="1" source="ztofhrs_hkuCxPjCwXTj-3" target="qD_2ZNkwh3tH0Hq8MnKl-1">
          <mxGeometry relative="1" as="geometry" />
        </mxCell>
        <mxCell id="ztofhrs_hkuCxPjCwXTj-3" value="CameraPi_sub&lt;br&gt;Start" style="ellipse;whiteSpace=wrap;html=1;aspect=fixed;" parent="1" vertex="1">
          <mxGeometry x="-460" y="-450" width="100" height="100" as="geometry" />
        </mxCell>
        <mxCell id="qD_2ZNkwh3tH0Hq8MnKl-19" style="edgeStyle=orthogonalEdgeStyle;rounded=0;orthogonalLoop=1;jettySize=auto;html=1;entryX=0.5;entryY=0;entryDx=0;entryDy=0;" edge="1" parent="1" source="ztofhrs_hkuCxPjCwXTj-6" target="qD_2ZNkwh3tH0Hq8MnKl-17">
          <mxGeometry relative="1" as="geometry" />
        </mxCell>
        <mxCell id="qD_2ZNkwh3tH0Hq8MnKl-25" style="edgeStyle=orthogonalEdgeStyle;rounded=0;orthogonalLoop=1;jettySize=auto;html=1;" edge="1" parent="1" source="ztofhrs_hkuCxPjCwXTj-6" target="ztofhrs_hkuCxPjCwXTj-34">
          <mxGeometry relative="1" as="geometry" />
        </mxCell>
        <mxCell id="ztofhrs_hkuCxPjCwXTj-6" value="&lt;span style=&quot;color: rgb(0 , 0 , 0) ; font-family: &amp;#34;helvetica&amp;#34; ; font-size: 12px ; font-style: normal ; font-weight: 400 ; letter-spacing: normal ; text-align: center ; text-indent: 0px ; text-transform: none ; word-spacing: 0px ; background-color: rgb(248 , 249 , 250) ; display: inline ; float: none&quot;&gt;メインカメラからの&lt;br&gt;シリアル接続待ち&lt;br&gt;メインカメラIP受信&lt;br&gt;&lt;/span&gt;" style="rhombus;whiteSpace=wrap;html=1;" parent="1" vertex="1">
          <mxGeometry x="-500" y="50" width="180" height="80" as="geometry" />
        </mxCell>
        <mxCell id="ztofhrs_hkuCxPjCwXTj-7" value="connection successfully" style="text;html=1;strokeColor=none;fillColor=none;align=center;verticalAlign=middle;whiteSpace=wrap;rounded=0;" parent="1" vertex="1">
          <mxGeometry x="-390" y="130" width="90" height="40" as="geometry" />
        </mxCell>
        <mxCell id="ztofhrs_hkuCxPjCwXTj-50" style="edgeStyle=orthogonalEdgeStyle;rounded=0;orthogonalLoop=1;jettySize=auto;html=1;entryX=0;entryY=0.5;entryDx=0;entryDy=0;" parent="1" source="ztofhrs_hkuCxPjCwXTj-9" target="ztofhrs_hkuCxPjCwXTj-34" edge="1">
          <mxGeometry relative="1" as="geometry">
            <Array as="points">
              <mxPoint x="-550" y="820" />
              <mxPoint x="-550" y="345" />
            </Array>
          </mxGeometry>
        </mxCell>
        <mxCell id="ztofhrs_hkuCxPjCwXTj-9" value="結果をメインPiに転送" style="rounded=1;whiteSpace=wrap;html=1;" parent="1" vertex="1">
          <mxGeometry x="-485" y="785" width="150" height="70" as="geometry" />
        </mxCell>
        <mxCell id="ztofhrs_hkuCxPjCwXTj-22" style="edgeStyle=orthogonalEdgeStyle;rounded=0;orthogonalLoop=1;jettySize=auto;html=1;entryX=0.5;entryY=0;entryDx=0;entryDy=0;" parent="1" source="ztofhrs_hkuCxPjCwXTj-24" target="ztofhrs_hkuCxPjCwXTj-36" edge="1">
          <mxGeometry relative="1" as="geometry" />
        </mxCell>
        <mxCell id="ztofhrs_hkuCxPjCwXTj-24" value="撮影" style="rounded=1;whiteSpace=wrap;html=1;" parent="1" vertex="1">
          <mxGeometry x="-485" y="460" width="150" height="70" as="geometry" />
        </mxCell>
        <mxCell id="ztofhrs_hkuCxPjCwXTj-51" style="edgeStyle=orthogonalEdgeStyle;rounded=0;orthogonalLoop=1;jettySize=auto;html=1;" parent="1" source="ztofhrs_hkuCxPjCwXTj-34" edge="1">
          <mxGeometry relative="1" as="geometry">
            <mxPoint x="-410" y="455" as="targetPoint" />
          </mxGeometry>
        </mxCell>
        <mxCell id="ztofhrs_hkuCxPjCwXTj-34" value="撮影シグナル待受" style="rounded=1;whiteSpace=wrap;html=1;" parent="1" vertex="1">
          <mxGeometry x="-469.9999999999999" y="315" width="120" height="60" as="geometry" />
        </mxCell>
        <mxCell id="ztofhrs_hkuCxPjCwXTj-35" style="edgeStyle=orthogonalEdgeStyle;rounded=0;orthogonalLoop=1;jettySize=auto;html=1;entryX=0.5;entryY=0;entryDx=0;entryDy=0;" parent="1" source="ztofhrs_hkuCxPjCwXTj-36" target="ztofhrs_hkuCxPjCwXTj-9" edge="1">
          <mxGeometry relative="1" as="geometry" />
        </mxCell>
        <mxCell id="ztofhrs_hkuCxPjCwXTj-36" value="画像処理" style="rounded=1;whiteSpace=wrap;html=1;" parent="1" vertex="1">
          <mxGeometry x="-485" y="625" width="150" height="70" as="geometry" />
        </mxCell>
        <mxCell id="ztofhrs_hkuCxPjCwXTj-44" value="time out" style="text;html=1;strokeColor=none;fillColor=none;align=center;verticalAlign=middle;whiteSpace=wrap;rounded=0;" parent="1" vertex="1">
          <mxGeometry x="-530" y="50" width="40" height="20" as="geometry" />
        </mxCell>
        <mxCell id="ztofhrs_hkuCxPjCwXTj-54" style="edgeStyle=orthogonalEdgeStyle;rounded=0;orthogonalLoop=1;jettySize=auto;html=1;" parent="1" source="ztofhrs_hkuCxPjCwXTj-52" target="dFKXp6tCZQXhxMECFwLC-186" edge="1">
          <mxGeometry relative="1" as="geometry" />
        </mxCell>
        <mxCell id="ztofhrs_hkuCxPjCwXTj-52" value="Subカメラ撮影シグナル&lt;br&gt;撮影データ受信" style="rounded=1;whiteSpace=wrap;html=1;" parent="1" vertex="1">
          <mxGeometry x="75" y="665" width="150" height="70" as="geometry" />
        </mxCell>
        <mxCell id="ztofhrs_hkuCxPjCwXTj-56" value="画像処理" style="rounded=1;whiteSpace=wrap;html=1;" parent="1" vertex="1">
          <mxGeometry x="75" y="920" width="150" height="70" as="geometry" />
        </mxCell>
        <mxCell id="RG6cUzcdxNEVQMGQZuJg-1" value="true" style="text;html=1;strokeColor=none;fillColor=none;align=center;verticalAlign=middle;whiteSpace=wrap;rounded=0;" parent="1" vertex="1">
          <mxGeometry x="100" y="110" width="40" height="20" as="geometry" />
        </mxCell>
        <mxCell id="4RzyHpuHiGskv1pB8Knq-2" style="edgeStyle=orthogonalEdgeStyle;rounded=0;orthogonalLoop=1;jettySize=auto;html=1;entryX=0.5;entryY=0;entryDx=0;entryDy=0;" parent="1" source="4RzyHpuHiGskv1pB8Knq-1" target="dFKXp6tCZQXhxMECFwLC-3" edge="1">
          <mxGeometry relative="1" as="geometry" />
        </mxCell>
        <mxCell id="4RzyHpuHiGskv1pB8Knq-1" value="サブカメラ接続&lt;br&gt;メインカメラIP伝達" style="rounded=1;whiteSpace=wrap;html=1;" parent="1" vertex="1">
          <mxGeometry x="90" y="40" width="120" height="60" as="geometry" />
        </mxCell>
        <mxCell id="4RzyHpuHiGskv1pB8Knq-6" style="edgeStyle=orthogonalEdgeStyle;rounded=0;orthogonalLoop=1;jettySize=auto;html=1;" parent="1" source="4RzyHpuHiGskv1pB8Knq-4" target="ztofhrs_hkuCxPjCwXTj-6" edge="1">
          <mxGeometry relative="1" as="geometry" />
        </mxCell>
        <mxCell id="4RzyHpuHiGskv1pB8Knq-4" value="IP重複回避&lt;br&gt;ARP" style="rounded=1;whiteSpace=wrap;html=1;" parent="1" vertex="1">
          <mxGeometry x="-470" y="-70" width="120" height="60" as="geometry" />
        </mxCell>
        <mxCell id="Ek42vuAhrk8Ln4kb89eq-3" style="edgeStyle=orthogonalEdgeStyle;rounded=0;orthogonalLoop=1;jettySize=auto;html=1;" parent="1" source="Ek42vuAhrk8Ln4kb89eq-1" target="LhpffrZuen5v1YRQ7B42-1" edge="1">
          <mxGeometry relative="1" as="geometry" />
        </mxCell>
        <mxCell id="Ek42vuAhrk8Ln4kb89eq-1" value="&lt;span style=&quot;color: rgb(0 , 0 , 0) ; font-family: &amp;#34;helvetica&amp;#34; ; font-size: 12px ; font-style: normal ; font-weight: 400 ; letter-spacing: normal ; text-align: center ; text-indent: 0px ; text-transform: none ; word-spacing: 0px ; background-color: rgb(248 , 249 , 250) ; display: inline ; float: none&quot;&gt;CLI経由の実行&lt;br&gt;&lt;/span&gt;" style="rhombus;whiteSpace=wrap;html=1;" parent="1" vertex="1">
          <mxGeometry x="60" y="-280" width="180" height="80" as="geometry" />
        </mxCell>
        <mxCell id="qD_2ZNkwh3tH0Hq8MnKl-3" style="edgeStyle=orthogonalEdgeStyle;rounded=0;orthogonalLoop=1;jettySize=auto;html=1;entryX=0.5;entryY=0;entryDx=0;entryDy=0;" edge="1" parent="1" source="qD_2ZNkwh3tH0Hq8MnKl-1" target="4RzyHpuHiGskv1pB8Knq-4">
          <mxGeometry relative="1" as="geometry" />
        </mxCell>
        <mxCell id="qD_2ZNkwh3tH0Hq8MnKl-22" style="edgeStyle=orthogonalEdgeStyle;rounded=0;orthogonalLoop=1;jettySize=auto;html=1;entryX=0.5;entryY=0;entryDx=0;entryDy=0;" edge="1" parent="1" source="qD_2ZNkwh3tH0Hq8MnKl-1" target="qD_2ZNkwh3tH0Hq8MnKl-21">
          <mxGeometry relative="1" as="geometry" />
        </mxCell>
        <mxCell id="qD_2ZNkwh3tH0Hq8MnKl-1" value="&lt;span style=&quot;color: rgb(0 , 0 , 0) ; font-family: &amp;#34;helvetica&amp;#34; ; font-size: 12px ; font-style: normal ; font-weight: 400 ; letter-spacing: normal ; text-align: center ; text-indent: 0px ; text-transform: none ; word-spacing: 0px ; background-color: rgb(248 , 249 , 250) ; display: inline ; float: none&quot;&gt;CLI経由の実行&lt;br&gt;&lt;/span&gt;" style="rhombus;whiteSpace=wrap;html=1;" vertex="1" parent="1">
          <mxGeometry x="-500" y="-280" width="180" height="80" as="geometry" />
        </mxCell>
        <mxCell id="qD_2ZNkwh3tH0Hq8MnKl-12" style="edgeStyle=orthogonalEdgeStyle;rounded=0;orthogonalLoop=1;jettySize=auto;html=1;entryX=0.5;entryY=0;entryDx=0;entryDy=0;" edge="1" parent="1" source="qD_2ZNkwh3tH0Hq8MnKl-8" target="qD_2ZNkwh3tH0Hq8MnKl-11">
          <mxGeometry relative="1" as="geometry" />
        </mxCell>
        <mxCell id="qD_2ZNkwh3tH0Hq8MnKl-8" value="エラーログ出力" style="rounded=1;whiteSpace=wrap;html=1;" vertex="1" parent="1">
          <mxGeometry x="-187.5" y="10" width="120" height="60" as="geometry" />
        </mxCell>
        <mxCell id="qD_2ZNkwh3tH0Hq8MnKl-10" value="time out" style="text;html=1;strokeColor=none;fillColor=none;align=center;verticalAlign=middle;whiteSpace=wrap;rounded=0;" vertex="1" parent="1">
          <mxGeometry x="15.5" y="-70" width="40" height="20" as="geometry" />
        </mxCell>
        <mxCell id="qD_2ZNkwh3tH0Hq8MnKl-11" value="終了" style="rounded=1;whiteSpace=wrap;html=1;" vertex="1" parent="1">
          <mxGeometry x="-187.5" y="120" width="120" height="60" as="geometry" />
        </mxCell>
        <mxCell id="qD_2ZNkwh3tH0Hq8MnKl-20" style="edgeStyle=orthogonalEdgeStyle;rounded=0;orthogonalLoop=1;jettySize=auto;html=1;" edge="1" parent="1" source="qD_2ZNkwh3tH0Hq8MnKl-17" target="qD_2ZNkwh3tH0Hq8MnKl-18">
          <mxGeometry relative="1" as="geometry" />
        </mxCell>
        <mxCell id="qD_2ZNkwh3tH0Hq8MnKl-17" value="エラーログ出力" style="rounded=1;whiteSpace=wrap;html=1;" vertex="1" parent="1">
          <mxGeometry x="-650" y="110" width="120" height="60" as="geometry" />
        </mxCell>
        <mxCell id="qD_2ZNkwh3tH0Hq8MnKl-18" value="終了" style="rounded=1;whiteSpace=wrap;html=1;" vertex="1" parent="1">
          <mxGeometry x="-650" y="230" width="120" height="60" as="geometry" />
        </mxCell>
        <mxCell id="qD_2ZNkwh3tH0Hq8MnKl-21" value="単独動作モード" style="rounded=1;whiteSpace=wrap;html=1;" vertex="1" parent="1">
          <mxGeometry x="-650" y="-170" width="120" height="60" as="geometry" />
        </mxCell>
        <mxCell id="qD_2ZNkwh3tH0Hq8MnKl-23" value="" style="endArrow=none;dashed=1;html=1;exitX=1;exitY=0.5;exitDx=0;exitDy=0;entryX=0;entryY=0.5;entryDx=0;entryDy=0;" edge="1" parent="1" source="ztofhrs_hkuCxPjCwXTj-34" target="ztofhrs_hkuCxPjCwXTj-52">
          <mxGeometry width="50" height="50" relative="1" as="geometry">
            <mxPoint x="-200" y="490" as="sourcePoint" />
            <mxPoint x="-150" y="440" as="targetPoint" />
            <Array as="points">
              <mxPoint x="-280" y="345" />
              <mxPoint x="-280" y="700" />
            </Array>
          </mxGeometry>
        </mxCell>
        <mxCell id="qD_2ZNkwh3tH0Hq8MnKl-28" value="シリアル" style="edgeLabel;html=1;align=center;verticalAlign=middle;resizable=0;points=[];" vertex="1" connectable="0" parent="qD_2ZNkwh3tH0Hq8MnKl-23">
          <mxGeometry x="0.1643" y="3" relative="1" as="geometry">
            <mxPoint as="offset" />
          </mxGeometry>
        </mxCell>
        <mxCell id="qD_2ZNkwh3tH0Hq8MnKl-24" value="" style="endArrow=none;dashed=1;html=1;dashPattern=1 3;strokeWidth=2;exitX=1;exitY=0.5;exitDx=0;exitDy=0;entryX=0;entryY=0.5;entryDx=0;entryDy=0;" edge="1" parent="1" source="ztofhrs_hkuCxPjCwXTj-6" target="4RzyHpuHiGskv1pB8Knq-1">
          <mxGeometry width="50" height="50" relative="1" as="geometry">
            <mxPoint x="-200" y="260" as="sourcePoint" />
            <mxPoint x="-150" y="210" as="targetPoint" />
          </mxGeometry>
        </mxCell>
        <mxCell id="qD_2ZNkwh3tH0Hq8MnKl-26" value="" style="endArrow=none;dashed=1;html=1;exitX=1;exitY=0.5;exitDx=0;exitDy=0;entryX=0;entryY=0.75;entryDx=0;entryDy=0;" edge="1" parent="1" source="ztofhrs_hkuCxPjCwXTj-9" target="ztofhrs_hkuCxPjCwXTj-52">
          <mxGeometry width="50" height="50" relative="1" as="geometry">
            <mxPoint x="-222.56" y="810" as="sourcePoint" />
            <mxPoint x="-172.56" y="760" as="targetPoint" />
          </mxGeometry>
        </mxCell>
        <mxCell id="qD_2ZNkwh3tH0Hq8MnKl-27" value="WebSocket" style="edgeLabel;html=1;align=center;verticalAlign=middle;resizable=0;points=[];" vertex="1" connectable="0" parent="qD_2ZNkwh3tH0Hq8MnKl-26">
          <mxGeometry x="-0.079" y="-5" relative="1" as="geometry">
            <mxPoint as="offset" />
          </mxGeometry>
        </mxCell>
        <mxCell id="qD_2ZNkwh3tH0Hq8MnKl-30" style="edgeStyle=orthogonalEdgeStyle;rounded=0;orthogonalLoop=1;jettySize=auto;html=1;entryX=0;entryY=1;entryDx=0;entryDy=0;" edge="1" parent="1" source="qD_2ZNkwh3tH0Hq8MnKl-29" target="dFKXp6tCZQXhxMECFwLC-3">
          <mxGeometry relative="1" as="geometry">
            <Array as="points">
              <mxPoint x="50" y="210" />
            </Array>
          </mxGeometry>
        </mxCell>
        <mxCell id="qD_2ZNkwh3tH0Hq8MnKl-33" style="edgeStyle=orthogonalEdgeStyle;rounded=0;orthogonalLoop=1;jettySize=auto;html=1;entryX=0.25;entryY=0;entryDx=0;entryDy=0;exitX=1;exitY=0.5;exitDx=0;exitDy=0;" edge="1" parent="1" source="qD_2ZNkwh3tH0Hq8MnKl-29" target="dFKXp6tCZQXhxMECFwLC-88">
          <mxGeometry relative="1" as="geometry">
            <Array as="points">
              <mxPoint x="112" y="335" />
            </Array>
          </mxGeometry>
        </mxCell>
        <mxCell id="qD_2ZNkwh3tH0Hq8MnKl-29" value="&lt;span style=&quot;color: rgb(0 , 0 , 0) ; font-family: &amp;#34;helvetica&amp;#34; ; font-size: 12px ; font-style: normal ; font-weight: 400 ; letter-spacing: normal ; text-align: center ; text-indent: 0px ; text-transform: none ; word-spacing: 0px ; background-color: rgb(248 , 249 , 250) ; display: inline ; float: none&quot;&gt;PLC_COMMSの存在&lt;br&gt;&lt;/span&gt;" style="rhombus;whiteSpace=wrap;html=1;" vertex="1" parent="1">
          <mxGeometry y="295" width="100" height="80" as="geometry" />
        </mxCell>
        <mxCell id="qD_2ZNkwh3tH0Hq8MnKl-31" value="false" style="text;html=1;strokeColor=none;fillColor=none;align=center;verticalAlign=middle;whiteSpace=wrap;rounded=0;" vertex="1" parent="1">
          <mxGeometry x="10" y="270" width="40" height="20" as="geometry" />
        </mxCell>
        <mxCell id="qD_2ZNkwh3tH0Hq8MnKl-34" value="true" style="text;html=1;strokeColor=none;fillColor=none;align=center;verticalAlign=middle;whiteSpace=wrap;rounded=0;" vertex="1" parent="1">
          <mxGeometry x="90" y="300" width="40" height="20" as="geometry" />
        </mxCell>
      </root>
    </mxGraphModel>
  </diagram>
</mxfile>
